<svg width="20" height="22" viewBox="0 0 20 22" fill="none" xmlns="http://www.w3.org/2000/svg">
<path d="M2.17888 1.58847C1.34367 1.58847 0.52691 2.21201 0.52691 3.58872C0.52691 4.97375 1.34367 5.59852 2.17888 5.59852C3.01374 5.59852 3.83055 4.97375 3.83055 3.58872C3.83055 2.21201 3.01374 1.58847 2.17888 1.58847ZM4.34426 3.58872C4.34426 5.26782 3.23418 6.04781 2.17888 6.04781C1.11403 6.04781 0.00390625 5.26782 0.00390625 3.58872C0.00390625 1.91856 1.11403 1.13852 2.17888 1.13852C3.23418 1.13852 4.34426 1.91856 4.34426 3.58872Z" fill="black"/>
<path d="M8.18948 3.28602C7.94183 3.43301 7.16158 3.53385 6.38189 3.65288C5.62 3.77177 5.3265 4.08429 5.3265 4.65287C5.3265 5.25883 5.73938 5.61631 6.41796 5.61631C7.54736 5.61631 8.06086 4.73609 8.18948 4.44212V3.28602ZM9.09775 5.60772V5.97449C9.00633 6.00249 8.93301 6.01139 8.83226 6.01139C8.43718 6.01139 8.2263 5.846 8.2263 5.35065V4.93769C8.07931 5.24034 7.52848 6.04781 6.33592 6.04781C5.43646 6.04781 4.78487 5.56175 4.78487 4.66247C4.78487 3.87318 5.28031 3.39576 6.44596 3.24903C6.96897 3.17598 7.84086 3.08412 8.18948 2.90076V2.77226C8.18948 1.87259 7.79502 1.57028 6.88609 1.57028C6.06039 1.57028 5.68416 1.8544 5.61044 2.30413H5.09721C5.19779 1.52374 5.87685 1.13852 6.8953 1.13852C8.09745 1.13852 8.72169 1.58847 8.72169 2.90076V5.26782C8.72169 5.52485 8.81337 5.61631 9.09775 5.60772Z" fill="black"/>
<path d="M11.4288 5.48812V5.92856C11.2271 5.99268 10.9698 6.02037 10.7039 6.02037C10.2632 6.02037 9.89628 5.86418 9.89628 5.24034V1.64334H9.20806V1.19339H9.89628V-1.00162e-08L10.4285 -1.05551e-08V1.19339H11.3464V1.64334H10.4285V5.21325C10.4285 5.47055 10.5387 5.56175 10.8139 5.56175C11.0619 5.56175 11.2271 5.53405 11.4288 5.48812Z" fill="black"/>
<path d="M13.705 1.55148C12.8877 1.55148 12.5117 1.88218 12.5117 2.38612C12.5117 2.85457 12.7686 3.09341 13.4476 3.25863L14.1723 3.43301C15.081 3.65288 15.6138 3.855 15.6138 4.70804C15.6138 5.70821 14.7047 6.02997 13.7413 6.02997C12.7504 6.02997 11.9517 5.63511 11.8231 4.66247H12.3098C12.4659 5.38763 13.0529 5.61631 13.7413 5.61631C14.4385 5.61631 15.081 5.37843 15.081 4.70804C15.081 4.13911 14.7237 3.98349 14.1178 3.8365L13.2553 3.63429C12.4197 3.43301 11.9796 3.06633 11.9796 2.38612C11.9796 1.56069 12.6586 1.13852 13.705 1.13852C14.5948 1.13852 15.2191 1.47812 15.4483 2.31364H14.9619C14.7597 1.74409 14.347 1.55148 13.705 1.55148Z" fill="black"/>
<path d="M2.3349 8.80785C1.76592 8.80785 1.30708 9.20301 1.30708 10.2123C1.30708 11.1853 1.76592 11.5894 2.3349 11.5894C2.89485 11.5894 3.35373 11.1853 3.35373 10.2123C3.35373 9.20301 2.89485 8.80785 2.3349 8.80785ZM4.65669 10.2123C4.65669 11.9928 3.34453 12.653 2.3349 12.653C1.32562 12.653 0.00390626 11.9928 0.00390626 10.2123C0.00390625 8.42232 1.32562 7.74334 2.3349 7.74334C3.34453 7.74334 4.65669 8.42232 4.65669 10.2123Z" fill="black"/>
<path d="M6.26282 12.5704L4.41815 7.79852H5.73986L6.98759 11.2405L8.2266 7.79852H9.54783L7.70356 12.5704H6.26282Z" fill="black"/>
<path d="M10.6307 9.72602H12.567C12.4762 9.10156 12.1725 8.80785 11.6312 8.80785C11.1171 8.80785 10.7502 9.11107 10.6307 9.72602ZM13.8704 10.6065H10.6215C10.7321 11.2954 11.1539 11.5894 11.7413 11.5894C12.0717 11.5894 12.402 11.4695 12.5581 11.194H13.7966C13.4483 12.2123 12.7415 12.653 11.6124 12.653C10.6033 12.653 9.30013 11.983 9.30013 10.2123C9.30013 8.43187 10.5484 7.74334 11.6312 7.74334C12.8512 7.74334 13.8704 8.5055 13.8704 10.368V10.6065Z" fill="black"/>
<path d="M17.3666 7.78958V8.94563C17.2103 8.93669 17.1003 8.93669 17.0454 8.93669C16.0357 8.92744 15.6319 9.36784 15.4948 10.0563V12.5704H14.1824V7.79852H15.4948V8.88178C15.6415 8.22966 16.1094 7.75285 16.8983 7.75285C17.0634 7.75285 17.1829 7.76153 17.3666 7.78958Z" fill="black"/>
<path d="M4.82169 17.0999V19.981H3.50927V17.1643C3.50927 16.5038 3.19728 16.2825 2.7387 16.2825C2.0961 16.2825 1.6557 16.8706 1.58252 17.1732V19.981H0.270098L0.270097 15.2091H1.58252V16.1451C1.72915 15.8146 2.24265 15.1637 3.13334 15.1637C4.10555 15.1637 4.82169 15.6498 4.82169 17.0999Z" fill="black"/>
<path d="M6.73091 15.2091V19.981H5.41805V15.2091H6.73091ZM6.73091 13.5574V14.6309H5.41805V13.5574H6.73091Z" fill="black"/>
<path d="M10.4103 17.5958C10.4103 16.6409 9.97872 16.2551 9.38235 16.2551C8.82249 16.2551 8.40085 16.6046 8.40085 17.5958C8.40085 18.5494 8.82249 18.8985 9.38235 18.8985C9.97872 18.8985 10.4103 18.5682 10.4103 17.5958ZM11.6677 15.2091V19.8525C11.6305 21.6699 10.2087 22 9.22651 22C8.24466 22 7.53781 21.5689 7.20742 20.9358L8.02413 20.4309C8.19856 20.6513 8.51059 20.9263 9.22651 20.9263C10.0156 20.9263 10.3552 20.6236 10.3552 19.7791V19.376C10.346 19.4398 10.0248 19.9998 9.10687 19.9998C8.29948 19.9998 7.09746 19.3482 7.09746 17.5958C7.09746 15.8332 8.29948 15.1539 9.10687 15.1539C9.88673 15.1539 10.1992 15.5213 10.3552 15.8054V15.2091H11.6677Z" fill="black"/>
<path d="M16.733 17.0999V19.981H15.4206V17.1643C15.4206 16.5038 15.1087 16.2825 14.6498 16.2825C14.0076 16.2825 13.567 16.8706 13.4932 17.1732V19.981H12.1816V13.5574H13.4932V16.1451C13.6405 15.8146 14.1541 15.1637 15.0446 15.1637C16.0169 15.1637 16.733 15.6498 16.733 17.0999Z" fill="black"/>
<path d="M19.9359 18.8896V19.8987C19.7341 19.9905 19.431 20.0361 18.9815 20.0361C18.2658 20.0361 17.6234 19.7791 17.6234 18.4579V16.2551H16.9347V15.2091H17.6234V14.016H18.9357V15.2091H19.8531V16.2551H18.9357V18.4853C18.9357 18.77 19.0641 18.9534 19.3758 18.9534C19.5685 18.9534 19.7341 18.926 19.9359 18.8896Z" fill="black"/>
</svg>
