<?xml version="1.0" encoding="UTF-8"?>
<svg id="Camada_2" data-name="Camada 2" xmlns="http://www.w3.org/2000/svg" viewBox="0 0 121.97 36">
  <g id="Camada_1-2" data-name="Camada 1">
    <g>
      <path d="M21.01,18.34c.16.04.28.08.4.12v-2.07c-.12-.04-.24-.12-.4-.16v2.11Z"/>
      <path d="M17.65,16.31s0,0,0,0l.4-2.28-2.78-1.29.69,1.06c-1.66-.89-3.76-.77-5.25.04-1.23.67-2.6,1.38-3.06,1.62,2.3.75,4.39,1.57,5.53,2.16,0,0-3.39-1.42-6.34-1.42-2.02,0-3.43.69-4.32,1.18.36,2.39,1.05,4.5,1.9,6.33.73,1.54,1.58,2.88,2.54,4.06v-1.06l1.37-3.69,1.29,3.69v1.01c.28-.16.61-.28.89-.45v-6.82h.81v-1.01h3.88v1.01h.93v4.55c.28-.12.65-.2.97-.32v-4.83c0-.45.2-.85.69-1.1v-2.23l-.12-.16v-.05Z"/>
      <path d="M13.82,22.69c-.16,0-.28.16-.28.32v7.67l.57-.16v-7.51c0-.2-.12-.32-.28-.32Z"/>
      <path d="M20.24,18.22c.16,0,.28.04.4.04v-2.11c-.12-.04-.24-.08-.4-.08v2.15Z"/>
      <path d="M17.98,18.47c.08-.04.24-.08.4-.12v-2.11c-.16.04-.28.08-.4.16v2.07Z"/>
      <path d="M18.74,18.26c.12,0,.24-.04.4-.04v-2.15c-.12.04-.28.04-.4.08v2.11Z"/>
      <path d="M19.47,16.03v2.15h.48v-2.15h-.48Z"/>
      <polygon points="13.45 4.95 11.8 6.62 12.97 6.62 13.45 4.95"/>
      <path d="M7.23,7.75c.16,0,.32-.04.48-.16.12-.08.24-.2.28-.37.04-.12.04-.2,0-.32-.08-.16-.24-.37-.53-.65-.16.12-.32.24-.4.37-.12.12-.2.28-.24.45-.08.2-.04.37.04.49.08.12.2.2.36.2Z"/>
      <path d="M2.22,13.88c0,.97.04,1.87.16,2.76l3.03-1.87c.45.13.9.26,1.34.4l7.38-4.02,4.06,2.02,1.59-9,2.13,12.04s.01,0,.02.01v.08l-.12.12v2.23c.32.32.53.77.53,1.22v3.49c.57-.12,1.13-.2,1.74-.28.77-1.75,1.33-3.69,1.66-5.89l-3.39-1.46-.12-.61,3.55,1.7c.12-.93.2-1.95.2-3l.08-10.27c-7.92-2.07-15.91-2.11-23.83-.08v10.39ZM13.98,4.47l-.65,2.15h.48l-.12.37h-.44l-.24.89h-.4l.24-.89h-1.41l.08-.32,2.18-2.19h.28ZM9.09,6.5c.08-.28.24-.57.44-.85s.44-.49.73-.73c.28-.2.53-.37.77-.41.24-.08.4-.12.61-.12h.16v.08l-.04.08c-.2.04-.4.08-.57.12-.16.08-.32.16-.48.28-.16.12-.32.28-.44.45-.12.16-.28.37-.4.57.28-.16.53-.24.77-.24s.4.08.48.28c.12.16.12.41.04.69s-.24.53-.48.77c-.28.28-.61.41-.93.41-.24,0-.4-.08-.53-.24-.24-.28-.28-.69-.12-1.14ZM7.03,5.64c-.04-.12-.04-.28,0-.41.08-.2.2-.41.4-.57.2-.16.44-.24.73-.24s.44.08.57.2c.12.16.16.32.08.49-.04.12-.12.24-.24.37-.12.12-.36.28-.69.45.2.2.36.41.4.53.08.16.08.32.04.53-.08.24-.2.45-.44.61-.24.16-.48.24-.77.24-.32,0-.53-.08-.65-.28-.08-.16-.12-.32-.04-.53.04-.16.12-.28.28-.45.2-.08.4-.24.69-.41-.2-.2-.32-.41-.36-.53ZM4.84,7.75c.16,0,.24,0,.32-.04.04-.04.08-.04.12-.08.04-.04.08-.16.12-.37l.53-1.79c.08-.24.12-.41.12-.45s0-.08-.04-.12-.04-.04-.08-.04-.16.04-.28.08l-.04-.12.93-.41h.08l-.81,2.8c-.04.2-.08.28-.08.37,0,.04.04.08.08.12s.12.04.28.04l-.04.08h-1.25l.04-.08Z"/>
      <path d="M27.02,1.66c-4.32-1.1-8.76-1.66-13.09-1.66S5.37.53,1.13,1.58l-1.13.28v11.89c.04,3.9.85,7.55,2.42,10.8,2.18,4.46,5.82,8.2,10.91,11.04l.73.41.73-.41c5.05-2.84,8.72-6.57,10.91-11.04,1.58-3.29,2.38-6.9,2.42-10.8V1.95l-1.09-.28ZM26.66,13.76c-.04,4.06-.97,7.43-2.3,10.19-2.54,5.28-6.83,8.44-10.3,10.39-3.43-1.95-7.71-5.11-10.26-10.35-1.33-2.76-2.26-6.13-2.3-10.19V3.04c8.36-2.11,16.8-2.07,25.16.04v10.67Z"/>
      <path d="M12.48,22.69c-.16,0-.28.16-.28.32v8.04l.57-.16v-7.87c0-.2-.12-.32-.28-.32Z"/>
      <path d="M9.9,7.8c.12,0,.28-.08.44-.2s.24-.32.32-.57c.08-.28.08-.53.04-.73s-.16-.32-.36-.32c-.08,0-.12,0-.2.04-.08,0-.2.08-.36.16-.08.2-.16.41-.2.53-.04.16-.08.32-.08.53,0,.16.04.32.12.45.04.08.16.12.28.12Z"/>
      <path d="M7.88,5.88c.24-.16.4-.32.48-.41.08-.12.16-.2.16-.37.04-.16.04-.32-.04-.41-.08-.08-.2-.16-.36-.16s-.32.04-.44.16c-.12.08-.2.2-.24.32-.04.08-.04.16,0,.24,0,.08.04.16.12.24l.32.37Z"/>
      <path d="M37.82,5.52c-.04-.41-.12-.61-.53-.7-.08-.04-.33-.04-.41-.04-.04,0-.08-.04-.08-.08,0-.08.08-.08.21-.08.57,0,1.31.04,1.44.04s.86-.04,1.23-.04c.12,0,.21.04.21.08s-.04.08-.08.08c-.08,0-.16,0-.33.04-.33.04-.45.29-.45.7v4.47c0,1.8.41,2.58.94,3.07.62.57,1.19.7,1.89.7.78,0,1.52-.37,1.97-.9.57-.7.74-1.76.74-3.07v-1.56c0-1.97,0-2.3-.04-2.71-.04-.41-.12-.61-.53-.7-.08-.04-.33-.04-.41-.04-.04,0-.08-.04-.08-.08,0-.08.08-.08.21-.08.57,0,1.27.04,1.31.04.08,0,.66-.04,1.07-.04.12,0,.21.04.21.08s-.04.08-.08.08c-.08,0-.16,0-.33.04-.33.08-.45.29-.45.7-.04.41-.04.74-.04,2.71v1.35c0,1.35-.16,2.83-1.15,3.73-.9.82-1.85.94-2.59.94-.41,0-1.68-.04-2.59-.9-.62-.57-1.11-1.48-1.11-3.28v-1.84s-.08-2.3-.12-2.71Z"/>
      <path d="M47.55,12.36c.04,1.02.16,1.35.49,1.43.25.08.53.08.62.08s.08.04.08.08c0,.08-.08.08-.21.08-.7,0-1.23-.04-1.31-.04-.12,0-.66.04-1.19.04-.12,0-.21,0-.21-.08,0-.04.04-.08.08-.08.12,0,.33,0,.53-.08.33-.08.37-.45.37-1.6v-7.17c0-.49.04-.61.12-.61s.33.29.45.41c.21.2,2.05,2.21,3.98,4.3,1.23,1.31,2.59,2.83,3,3.28l-.12-6.35c0-.82-.08-1.11-.49-1.19-.21-.04-.49-.08-.62-.08-.08,0-.12-.04-.12-.08,0-.08.12-.08.25-.08.57,0,1.15.04,1.31.04.12,0,.53-.04,1.07-.04.12,0,.21,0,.21.08,0,.04-.04.08-.12.08-.04,0-.16,0-.29.04-.41.08-.45.37-.45,1.11l-.04,7.34c0,.82-.04.9-.12.9s-.25-.12-.9-.82c-.12-.12-1.93-1.97-3.28-3.4-1.44-1.56-2.87-3.16-3.28-3.61l.21,6.03Z"/>
      <path d="M58.47,10.4c0,1.19,0,2.17.04,2.71.04.37.12.61.49.7.16.04.45.04.57.04.08,0,.08.04.08.08,0,.08-.04.08-.21.08-.7,0-1.48-.04-1.56-.04-.04,0-.86.04-1.23.04-.12,0-.21-.04-.21-.08s.04-.08.08-.08c.12,0,.25-.04.37-.04.25-.04.33-.33.37-.7.08-.53.08-1.52.08-2.71v-2.21c0-1.97,0-2.3-.04-2.71s-.16-.66-.41-.7c-.12-.04-.29-.04-.37-.04-.04,0-.08-.04-.08-.08,0-.08.08-.08.21-.08.41,0,1.19.04,1.27.04s.86-.04,1.23-.04c.12,0,.21.04.21.08s-.04.08-.08.08c-.08,0-.16,0-.33.04-.33.08-.45.29-.45.7-.04.41-.04.74-.04,2.71v2.21Z"/>
      <path d="M65.04,12.53c.74-1.68,2.42-6.03,2.67-6.93.04-.2.12-.37.12-.49,0-.08-.04-.25-.16-.29-.16-.04-.33-.04-.45-.04-.08,0-.12,0-.12-.08s.08-.08.29-.08c.49,0,1.07.04,1.23.04.08,0,.62-.04.98-.04.12,0,.21.04.21.08,0,.08-.04.08-.16.08-.08,0-.37,0-.62.16-.16.12-.33.33-.7,1.19-.12.37-.78,1.84-1.4,3.4-.78,1.84-1.31,3.16-1.6,3.77-.37.74-.41.94-.53.94-.16,0-.21-.16-.45-.78l-3.08-7.67c-.29-.7-.45-.82-.9-.94-.21-.04-.41-.04-.49-.04s-.08-.04-.08-.08c0-.08.12-.08.33-.08.62,0,1.31.04,1.48.04.12,0,.7-.04,1.15-.04.25,0,.33.04.33.08,0,.08-.04.08-.12.08-.12,0-.37,0-.49.08-.12.08-.16.16-.16.25,0,.16.16.53.33,1.02l2.42,6.35Z"/>
      <path d="M71.24,5.52c-.04-.41-.12-.61-.53-.7-.12-.04-.33-.04-.41-.04-.04,0-.08-.04-.08-.08,0-.08.08-.08.21-.08.57,0,1.35.04,1.44.04h3.24c.25,0,.45-.04.53-.04.04,0,.12-.08.16-.08s.04.04.04.12-.04.25-.08.57c0,.12-.04.7-.08.82,0,.04-.04.12-.08.12-.08,0-.08-.04-.08-.16,0-.08,0-.29-.08-.45-.08-.2-.21-.37-.9-.41-.21-.04-1.97-.04-2.09-.04-.04,0-.08.04-.08.12v3.44c0,.08,0,.12.08.12.16,0,2.09,0,2.38-.04.29-.04.49-.04.57-.16.08-.08.12-.16.21-.16.04,0,.04.04.04.08,0,.08-.04.29-.08.7-.04.25-.04.7-.04.78s0,.25-.08.25-.08-.04-.08-.12c0-.12,0-.25-.04-.41-.04-.16-.16-.37-.66-.45-.33-.04-1.97-.08-2.18-.08-.04,0-.08.04-.08.08v3.24c.04.86.62,1.02,1.85,1.02.33,0,.86,0,1.19-.12.33-.12.49-.37.57-.9.04-.12.04-.2.12-.2s.08.08.08.2c0,.08-.08.94-.16,1.23-.08.33-.21.33-.66.33-1.89,0-3.12-.08-3.49-.08-.08,0-.86.04-1.23.04-.12,0-.21-.04-.21-.08s.04-.08.08-.08c.12,0,.25-.04.37-.04.25-.04.33-.33.37-.7.08-.53.08-1.52.08-2.71v-2.17s-.08-2.3-.12-2.71Z"/>
      <path d="M77.51,8.23c0-1.97,0-2.3-.04-2.71-.04-.41-.12-.61-.53-.7-.08-.04-.33-.04-.41-.04-.04,0-.08-.04-.08-.08,0-.08.04-.08.21-.08.57,0,1.35.04,1.4.04.12,0,1.07-.04,1.48-.04.78,0,1.64.08,2.3.53.33.25.86.86.86,1.72,0,.94-.41,1.84-1.52,2.87,1.03,1.31,1.89,2.42,2.59,3.2.7.7,1.23.86,1.52.9.25.04.41.04.49.04s.12.04.12.08c0,.08-.08.08-.29.08h-.9c-.7,0-1.03-.08-1.35-.25-.53-.29-.99-.9-1.68-1.84-.53-.7-1.11-1.52-1.35-1.84-.04-.04-.08-.08-.16-.08l-1.56-.04c-.08,0-.08.04-.08.08v.29c0,1.19,0,2.17.08,2.71.04.37.12.61.49.7.16.04.45.04.57.04.08,0,.12.04.12.08,0,.08-.08.08-.21.08-.7,0-1.48-.04-1.56-.04,0,0-.82.04-1.19.04-.12,0-.21-.04-.21-.08s.04-.08.08-.08c.12,0,.25-.04.37-.04.25-.04.33-.33.37-.7.08-.53.08-1.52.08-2.71v-2.13ZM78.62,9.29c0,.08.04.12.08.16.21.12.78.2,1.31.2.29,0,.66-.04.94-.25.45-.29.78-.98.78-1.93,0-1.56-.82-2.5-2.18-2.5-.37,0-.74.04-.82.08-.04.04-.08.08-.08.16l-.04,4.06Z"/>
      <path d="M85.3,13.88c-.16-.08-.21-.12-.21-.49,0-.61.04-1.11.08-1.31,0-.12.04-.2.08-.2.08,0,.08.04.08.12,0,.12,0,.29.04.45.21.9,1.03,1.27,1.85,1.27,1.19,0,1.81-.86,1.81-1.68,0-.86-.37-1.35-1.44-2.25l-.57-.45c-1.31-1.11-1.64-1.84-1.64-2.71,0-1.35.98-2.25,2.59-2.25.49,0,.86.04,1.15.12.25.04.33.04.45.04.08,0,.12.04.12.08,0,.08-.04.49-.04,1.31,0,.2-.04.29-.08.29-.08,0-.08-.08-.12-.16,0-.16-.08-.49-.16-.61-.08-.12-.41-.66-1.56-.66-.86,0-1.52.53-1.52,1.43,0,.7.33,1.15,1.52,2.09l.33.29c1.48,1.15,1.85,1.93,1.85,2.95,0,.53-.21,1.48-1.07,2.09-.53.37-1.23.53-1.89.53-.57.04-1.15-.04-1.64-.29Z"/>
      <path d="M92.36,10.4c0,1.19,0,2.17.08,2.71.04.37.12.61.49.7.16.04.45.04.57.04.08,0,.08.04.08.08,0,.08-.08.08-.21.08-.7,0-1.48-.04-1.56-.04s-.86.04-1.23.04c-.12,0-.21-.04-.21-.08s.04-.08.08-.08c.12,0,.25-.04.37-.04.25-.04.33-.33.37-.7.08-.53.08-1.52.08-2.71v-2.21c0-1.97,0-2.3-.04-2.71-.04-.41-.16-.66-.41-.7-.12-.04-.29-.04-.37-.04-.04,0-.12-.04-.12-.08,0-.08.08-.08.21-.08.41,0,1.19.04,1.27.04s.86-.04,1.23-.04c.12,0,.21.04.21.08s-.04.08-.08.08c-.08,0-.16,0-.33.04-.33.08-.45.29-.45.7-.04.41-.04.74-.04,2.71v2.21Z"/>
      <path d="M98.2,13.1c.04.37.12.61.49.7.16.04.45.04.57.04.08,0,.08.04.08.08,0,.08-.08.08-.21.08-.7,0-1.48-.04-1.56-.04-.04,0-.86.04-1.23.04-.12,0-.21-.04-.21-.08s.04-.08.08-.08c.12,0,.29-.04.37-.04.25-.04.33-.33.37-.7.08-.53.08-1.52.08-2.71v-5.29l-1.85.04c-.78,0-1.07.08-1.27.41-.12.2-.16.29-.21.41-.04.12-.08.12-.12.12s-.08-.04-.08-.12c0-.12.25-1.19.29-1.31.04-.08.08-.25.12-.25.08,0,.21.12.53.16.37.04.82.08.98.08h4.68c.82,0,1.15-.12,1.23-.12s.08.08.08.16c0,.37-.04,1.23-.04,1.39,0,.12-.04.16-.08.16-.08,0-.08-.04-.08-.2v-.12c-.04-.37-.33-.66-1.56-.7l-1.56-.04v5.21s.04,2.17.08,2.71Z"/>
      <path d="M106.07,10.81c0-.66-.12-.94-.29-1.31-.08-.2-1.76-2.95-2.22-3.61-.33-.45-.62-.78-.86-.94-.21-.12-.41-.2-.53-.2-.08,0-.12-.04-.12-.08s.04-.08.16-.08c.25,0,1.19.04,1.23.04.08,0,.57-.04,1.07-.04.16,0,.16.04.16.08s-.08.08-.16.12c-.12.04-.16.12-.16.2,0,.16.08.29.16.49.21.37,2.09,3.61,2.3,3.94.25-.53,1.85-3.28,2.09-3.69.16-.25.21-.49.21-.66s-.04-.33-.21-.33c-.12-.04-.21-.08-.21-.12s.08-.08.21-.08c.33,0,.74.04.82.04s.98-.04,1.23-.04c.08,0,.16.04.16.08s-.04.08-.16.08-.37.04-.57.16c-.25.16-.37.29-.66.66-.41.49-2.18,3.44-2.38,3.98-.21.45-.21.82-.21,1.23v1.07c0,.2,0,.74.04,1.27,0,.37.12.61.49.7.16.04.45.04.57.04.08,0,.08.04.08.08,0,.08-.04.08-.21.08-.7,0-1.48-.04-1.56-.04-.04,0-.86.04-1.23.04-.12,0-.21-.04-.21-.08s.04-.08.08-.08c.12,0,.25-.04.37-.04.25-.04.37-.33.37-.7.04-.53.12-2.25.12-2.25Z"/>
      <path d="M114.86,9.54c0,.41-.12.82-.33,1.23-.21.41-.53.7-.9.94-.37.25-.78.33-1.11.33-.37,0-.66-.12-.9-.37-.25-.25-.37-.53-.37-.94s.12-.82.33-1.19c.25-.41.53-.74.9-.94.37-.25.74-.37,1.11-.37s.66.12.9.37c.25.29.37.57.37.94ZM114.16,9.29c0-.25-.08-.45-.21-.57-.12-.12-.29-.2-.49-.2-.41,0-.78.29-1.11.86-.33.57-.49,1.15-.49,1.72,0,.25.08.45.21.61.12.12.29.2.49.2.37,0,.74-.29,1.07-.86.37-.61.53-1.19.53-1.76Z"/>
      <path d="M117.32,8.68h-.57l-.45,1.76c-.21.78-.41,1.39-.62,1.8-.29.61-.57,1.02-.9,1.27-.25.16-.49.29-.74.29-.16,0-.29-.04-.41-.16-.08-.08-.12-.16-.12-.29,0-.08.04-.16.12-.2.08-.08.16-.08.25-.08s.12.04.21.08c.04.04.08.12.08.16s-.04.12-.08.16c-.04.04-.04.08-.04.08t.04.04s.08.04.12.04c.12,0,.25-.04.37-.12.12-.08.25-.16.33-.33.12-.16.21-.37.29-.61.04-.12.12-.49.29-1.11l.7-2.75h-.7l.04-.29c.25,0,.37,0,.49-.04.08-.04.16-.08.25-.16.08-.08.16-.25.29-.49.16-.33.33-.57.45-.74.21-.25.41-.41.66-.53.21-.12.41-.16.62-.16s.37.04.49.16c.12.12.21.2.21.33,0,.08-.04.16-.08.25-.08.08-.16.08-.25.08s-.16-.04-.21-.08c-.04-.04-.08-.08-.08-.16,0-.04,0-.08.04-.16.04-.04.04-.12.04-.12,0-.04,0-.08-.04-.08-.04-.04-.08-.04-.16-.04-.16,0-.33.04-.45.16-.16.12-.33.37-.49.66-.08.16-.21.57-.41,1.19h.53l-.08.2Z"/>
      <path d="M37.81,17.24c-.04-.7-.21-1.02-.9-1.19-.16-.04-.53-.04-.7-.04-.08,0-.16-.04-.16-.12,0-.12.12-.16.33-.16.94,0,2.22.04,2.34.04.25,0,1.56-.04,2.79-.04,2.05,0,5.83-.2,8.29,2.38,1.03,1.07,2.01,2.79,2.01,5.25,0,2.62-1.07,4.59-2.22,5.82-.9.94-2.75,2.38-6.28,2.38-1.76,0-4.39-.25-4.6-.25-.08,0-1.4.08-2.01.08-.21,0-.33-.04-.33-.16,0-.08.04-.12.16-.12.21,0,.45-.04.62-.08.41-.08.53-.53.62-1.15.12-.86.12-2.5.12-4.47,0,0-.04-7.5-.08-8.16ZM39.62,28.44c0,.53.08,1.35.25,1.56.29.41,1.07.82,3.53.82,1.93,0,3.69-.7,4.93-1.93,1.07-1.07,1.64-3.03,1.64-4.96,0-2.62-1.15-4.3-1.97-5.21-1.93-2.05-4.31-2.34-6.77-2.34-.41,0-1.19.08-1.35.16-.21.08-.25.2-.25.41v4.39s-.04,6.72,0,7.09Z"/>
      <path d="M53.37,21.71c0-3.24,0-3.81-.04-4.47-.04-.7-.21-1.02-.9-1.19-.16-.04-.53-.04-.7-.04-.08,0-.16-.04-.16-.12,0-.12.08-.16.33-.16.94,0,2.22.04,2.34.04.16,0,4.93,0,5.38-.04.41,0,.74-.08.9-.08.08,0,.16-.12.29-.12.04,0,.08.08.08.2,0,.16-.12.41-.16.98-.04.2-.08,1.11-.08,1.35,0,.08-.08.25-.16.25-.12,0-.16-.08-.16-.29,0-.16-.04-.49-.12-.74-.12-.33-.37-.57-1.48-.7-.37-.04-3.24-.04-3.49-.04-.08,0-.12.04-.12.2v5.7c0,.16,0,.2.12.2.25,0,3.45,0,3.94-.04.49-.04.78-.08.98-.29.12-.16.21-.29.33-.29.08,0,.08.04.08.16s-.08.49-.16,1.15c-.04.41-.08,1.19-.08,1.31,0,.16,0,.41-.16.41-.08,0-.12-.08-.12-.2,0-.2,0-.41-.08-.7s-.29-.66-1.07-.74c-.57-.08-3.24-.08-3.61-.08-.12,0-.16.04-.16.16v1.8c0,.7-.04,3.12,0,3.53.08,1.43,1.03,1.68,3.04,1.68.53,0,1.44,0,1.97-.25.53-.25.78-.66.94-1.48.04-.25.08-.33.21-.33s.12.16.12.33-.16,1.56-.29,2.01c-.12.53-.33.53-1.11.53-3.12,0-5.17-.12-5.75-.12-.12,0-1.4.08-2.01.08-.25,0-.33-.04-.33-.16,0-.08.04-.12.16-.12.21,0,.45-.04.62-.08.41-.08.53-.53.62-1.15.12-.86.12-2.5.12-4.47l-.04-3.61Z"/>
      <path d="M64.55,28.56c.04,1.68.25,2.21.82,2.38.41.12.86.12,1.03.12.08,0,.16.04.16.12,0,.12-.12.16-.37.16-1.19,0-2.01-.08-2.22-.08s-1.07.08-1.97.08c-.21,0-.33,0-.33-.16,0-.08.04-.12.16-.12.16,0,.53-.04.86-.12.53-.16.62-.74.62-2.62v-11.85c0-.82.08-1.02.21-1.02.16,0,.53.45.74.66.33.37,3.41,3.69,6.61,7.09,2.05,2.17,4.31,4.71,4.97,5.41l-.25-10.5c-.04-1.35-.16-1.8-.82-1.97-.37-.08-.86-.12-1.03-.12s-.16-.04-.16-.16.16-.16.41-.16c.94,0,1.93.04,2.13.04.25,0,.9-.04,1.76-.04.21,0,.37,0,.37.16,0,.08-.08.16-.25.16-.12,0-.25,0-.49.04-.7.16-.78.61-.78,1.84l-.04,12.09c0,1.35-.04,1.48-.16,1.48-.16,0-.41-.25-1.52-1.31-.21-.2-3.2-3.24-5.42-5.62-2.38-2.58-4.72-5.17-5.42-5.94l.37,9.96Z"/>
      <path d="M87.53,28.85c1.19-2.79,3.98-9.96,4.43-11.48.08-.33.16-.61.16-.78s-.04-.37-.25-.49c-.25-.08-.57-.08-.78-.08-.12,0-.21,0-.21-.12s.12-.16.45-.16c.82,0,1.76.04,2.01.04.12,0,1.03-.04,1.6-.04.25,0,.37.04.37.16s-.08.16-.25.16-.62,0-.98.25c-.29.2-.57.53-1.15,1.93-.25.57-1.27,3.07-2.3,5.62-1.27,3.03-2.18,5.25-2.67,6.27-.57,1.23-.66,1.56-.86,1.56-.25,0-.33-.29-.74-1.27l-5.09-12.67c-.45-1.15-.78-1.39-1.48-1.6-.33-.08-.66-.08-.78-.08s-.16-.04-.16-.16.21-.16.53-.16c.98,0,2.18.04,2.42.04.21,0,1.15-.04,1.93-.04.37,0,.57.04.57.16s-.08.16-.21.16c-.25,0-.62.04-.78.12-.25.12-.29.29-.29.41,0,.29.25.9.57,1.72l3.9,10.54Z"/>
      <path d="M97.82,17.24c-.04-.7-.21-1.02-.9-1.19-.16-.04-.53-.04-.7-.04-.08,0-.16-.04-.16-.12,0-.12.12-.16.33-.16.94,0,2.22.04,2.34.04s4.93,0,5.38-.04c.41,0,.74-.08.9-.08.08,0,.16-.12.29-.12.04,0,.08.08.08.2,0,.16-.12.41-.16.98-.04.2-.04,1.11-.08,1.35-.04.08-.08.25-.16.25-.12,0-.16-.08-.16-.29,0-.16,0-.49-.12-.74-.16-.33-.37-.57-1.48-.7-.37-.04-3.24-.04-3.49-.04-.08,0-.12.04-.12.2v5.7c0,.16,0,.2.12.2.25,0,3.45,0,3.94-.04.49-.04.78-.08.98-.29.16-.16.25-.29.33-.29s.12.04.12.16-.12.49-.16,1.15c-.04.41-.08,1.19-.08,1.31,0,.16,0,.41-.16.41-.08,0-.12-.08-.12-.2,0-.2,0-.41-.08-.7-.08-.29-.29-.66-1.07-.74-.57-.08-3.24-.08-3.61-.08-.12,0-.16.04-.16.16v1.8c0,.7-.04,3.12,0,3.53.04,1.43,1.03,1.68,3.04,1.68.53,0,1.44,0,1.97-.25.53-.25.78-.66.94-1.48.04-.25.08-.33.21-.33s.12.16.12.33-.16,1.56-.29,2.01c-.12.53-.33.53-1.11.53-3.12,0-5.17-.12-5.75-.12-.12,0-1.4.08-2.01.08-.25,0-.33-.04-.33-.16,0-.08.04-.12.16-.12.16,0,.45-.04.62-.08.41-.08.53-.53.62-1.15.12-.86.12-2.5.12-4.47,0,0-.08-7.42-.12-8.08Z"/>
      <path d="M108.01,17.24c-.04-.7-.21-1.03-.9-1.19-.16-.04-.53-.04-.7-.04-.08,0-.16-.04-.16-.12,0-.12.12-.16.33-.16.94,0,2.26.04,2.34.04.25,0,1.81-.04,2.46-.04,1.31,0,2.71.12,3.78.9.53.37,1.44,1.39,1.44,2.83,0,1.52-.66,3.07-2.5,4.8,1.68,2.17,3.12,4.02,4.31,5.29,1.11,1.19,2.01,1.39,2.54,1.48.41.08.7.08.82.08.08,0,.21.08.21.12,0,.12-.12.16-.49.16h-1.48c-1.15,0-1.68-.12-2.22-.41-.9-.49-1.6-1.48-2.79-3.03-.86-1.15-1.85-2.5-2.26-3.03-.08-.08-.12-.12-.29-.12l-2.54-.04c-.12,0-.16.04-.16.16v.49c0,1.97,0,3.61.12,4.47.04.61.16,1.07.82,1.15.29.04.74.08.94.08.12,0,.16.08.16.12,0,.08-.12.16-.33.16-1.15,0-2.46-.08-2.54-.08-.04,0-1.31.08-1.93.08-.25,0-.33-.04-.33-.16,0-.08.04-.12.16-.12.16,0,.45-.04.62-.08.41-.08.53-.53.62-1.15.12-.86.12-2.5.12-4.47,0,0-.12-7.5-.16-8.16ZM109.69,23.52c0,.12.04.2.16.25.33.2,1.27.33,2.18.33.49,0,1.07-.04,1.56-.41.74-.49,1.27-1.6,1.27-3.2,0-2.58-1.35-4.14-3.57-4.14-.62,0-1.19.04-1.4.12-.12.04-.16.12-.16.25l-.04,6.81Z"/>
    </g>
  </g>
</svg>