<?xml version="1.0" encoding="UTF-8"?>
<svg id="Camada_2" data-name="Camada 2" xmlns="http://www.w3.org/2000/svg" viewBox="0 0 153.64 36">
  <g id="Camada_1-2" data-name="Camada 1">
    <g>
      <path d="M29.38,8.46L15.69.11c-.07-.04-.14-.07-.21-.11l.79,15.07h0l.18.09c.6.31,1.11.8,1.42,1.4l.09.18,12.04.62v-7.79c0-.45-.24-.87-.62-1.11Z"/>
      <path d="M12.05,16.74l.09-.18c.3-.6.81-1.09,1.41-1.4l.17-.09.79-15.07c-.07.02-.14.06-.2.1L.63,8.46c-.38.23-.62.66-.62,1.11v7.79l12.04-.62h0Z"/>
      <path d="M13.73,20.93l-.18-.09c-.6-.31-1.11-.8-1.42-1.4l-.09-.18-12.04-.62v7.79c0,.45.24.87.62,1.11l13.69,8.36c.07.04.14.07.21.11l-.79-15.07h0Z"/>
      <path d="M17.95,19.26l-.09.18c-.3.6-.81,1.09-1.41,1.4l-.17.09-.79,15.07c.07-.02.14-.06.2-.1l13.69-8.36c.38-.23.62-.66.62-1.11v-7.79l-12.04.62h0Z"/>
      <path d="M16.15,16.85c-.64-.63-1.67-.63-2.31,0-.64.63-.64,1.66,0,2.29.64.63,1.67.63,2.31,0,.64-.63.64-1.66,0-2.29Z"/>
      <path d="M57.75,9.35h-3.4c-.35,0-.43.04-.6.37l-3.93,8.16c-.58,1.22-1.09,2.8-1.09,2.8h-.16s-.49-1.59-1.09-2.8h.02l-3.93-8.16c-.16-.35-.27-.37-.6-.37h-3.4c-.16,0-.23.06-.23.16s.08.27.16.43l7.82,16.37h2.66l7.82-16.37c.08-.19.16-.35.16-.43s-.06-.16-.23-.16Z"/>
      <path d="M72.6,21.58c-.39-.6-.91-1.13-.91-1.13v-.06c2.26-.8,3.81-1.38,3.81-5.09s-2.94-5.94-7.06-5.94h-7.84c-.16,0-.33.16-.33.33l.02.02v16.29c0,.16.16.33.33.33h3.17c.16,0,.33-.16.33-.33v-4.97h3.64l3.44,5.03c.12.19.31.29.45.29h3.75c.16,0,.23-.1.23-.21,0-.06-.02-.16-.16-.37l-2.86-4.18ZM68.19,17.95h-4.1v-5.38h4.1c2.12,0,3.48,1.05,3.48,2.72s-1.36,2.66-3.48,2.66Z"/>
      <path d="M92.82,9.35h-16.04c-.16,0-.39.23-.39.39v2.43c0,.16.23.39.39.39h6.12v13.4c0,.16.16.33.33.33h3.17c.16,0,.33-.16.33-.33v-13.4h6.1c.16,0,.39-.23.39-.39v-2.43c0-.16-.23-.39-.39-.39Z"/>
      <path d="M104.33,16.28l-4.39-.37c-1.54-.12-2.06-.21-2.06-1.44s1.22-2.21,3.71-2.21,3.46.97,3.62,1.96c.06.35.23.43.51.43h2.8c.33,0,.53,2.23.53-.47s-2.43-5.11-7.43-5.11-7.58,3.11-7.58,5.65,1.83,4.12,5.27,4.41l4.41.37c1.71.14,2.26.43,2.26,1.65s-1.26,2.23-3.93,2.23-3.89-.91-4.18-2.35c-.04-.29-.23-.43-.56-.43v-.02h-2.74c-.31,0-.54.23-.54.52v.23c0,2.8,2.53,5.26,8.01,5.26s7.76-3.28,7.76-5.63-1.54-4.33-5.5-4.66Z"/>
      <path d="M124.2,14.73h-3.03c-.39,0-.52.08-.62.37l-2.74,6.8h-.06s-.21-.66-.6-1.42l-2.68-5.4c-.14-.29-.29-.37-.68-.37h-3.05c-.1,0-.25.08-.25.23,0,.06,0,.14.14.43l5.39,10.82-2.64,6.47c-.12.27-.14.33-.14.47s.12.23.23.23h3.03c.39,0,.52-.04.62-.33l7.15-17.6c.08-.23.14-.33.14-.47s-.12-.23-.23-.23Z"/>
      <path d="M133.67,14.42c-1.46,0-3.01.64-3.97,1.65h-.1l-.31-.89c-.1-.31-.27-.47-.47-.47h-2.18c-.16,0-.47.31-.47.47v10.64c0,.16.31.47.47.47h2.66c.16,0,.47-.31.47-.47v-6.37c.47-1.05,1.91-1.98,3.07-1.98s1.89.74,1.89,1.88h.02v6.47c0,.16.31.47.47.47h2.68c.16,0,.47-.31.47-.47v-6.76c0-2.66-1.44-4.64-4.69-4.64Z"/>
      <path d="M152.49,22.09c-.1-.16-.31-.31-.54-.31s-.37.06-.66.29c-1.13.87-1.73,1.46-3.71,1.46s-3.19-1.3-3.19-3.03,1.5-3.03,3.03-3.03,2.35.74,2.68,1.75c.04.21.25.37.47.37h2.45c.27,0,.56-.27.56-.56l.06-.02c0-.06,0-.23-.02-.39-.45-2.6-2.51-4.21-6.16-4.21s-6.67,2.21-6.67,6.08,2.99,6.08,6.77,6.08c2.39,0,4.34-.91,5.64-2.12.29-.27.39-.47.39-.7,0-.14-.04-.25-.21-.47l-.91-1.2Z"/>
    </g>
  </g>
</svg>